# xmcd
#
# Track frame offsets: 
#        150
#        14206
#        27172
#        42388
#        54002
#        66368
#        77268
#        87968
#        99875
#        121097
#        146651
#        164354
#        175756
#        186210
#        203713
#        216031
#        229926
#
# Disc length: 3244 seconds
#
# Revision: 0
# Processed by: cddbd v1.5.2PL0 Copyright (c) Steve Scherf et al.
# Submitted via: ExactAudioCopy v0.95a3
#
DISCID=dc0caa11
DTITLE=Compilation - Blues Roads
DYEAR=1900
DGENRE=Blues
TTITLE0=Buddy Guy and Junior Wells -- This old full
TTITLE1=BB King -- Please love me
TTITLE2=Ray Charles -- Sinner's prayer
TTITLE3=John Lee Hooker -- Talk about your baby
TTITLE4=Albert King -- Born under a bad sign
TTITLE5=John Hammond -- Dust my broom
TTITLE6=Freddie King -- That will never do
TTITLE7=T-Bone Walker -- Evenin'
TTITLE8=Jay Mcshann -- Confessin' the blues
TTITLE9=Otis Rush -- Gambler's blues
TTITLE10=Champion Jack Dupree -- Bad blood
TTITLE11=Rufus Thomas -- Walking the dog
TTITLE12=Elmore James -- Take me where you go
TTITLE13=Little Feat -- Dixie chicken
TTITLE14=Willie dixon -- Wang dang doodle
TTITLE15=Howlin' Wolf -- Smokestack Lightnin's
TTITLE16=Sonny Boy Williamson -- Good morning little school girl
EXTD=
EXTT0=
EXTT1=
EXTT2=
EXTT3=
EXTT4=
EXTT5=
EXTT6=
EXTT7=
EXTT8=
EXTT9=
EXTT10=
EXTT11=
EXTT12=
EXTT13=
EXTT14=
EXTT15=
EXTT16=
PLAYORDER=
